HIERARCHY
ROOT Hips
{
	OFFSET -3.958830 18.904000 13.208200
	CHANNELS 6 Xposition Yposition Zposition Zrotation Yrotation Xrotation 
	JOINT LHipJoint
	{
		OFFSET 0.000000 0.000000 0.000000
		CHANNELS 3 Zrotation Yrotation Xrotation
		JOINT LeftUpLeg
		{
			OFFSET 1.800000 -1.400000 0.085000
			CHANNELS 3 Zrotation Yrotation Xrotation
			JOINT LeftLeg
			{
				OFFSET 2.215000 -6.000000 0.000000
				CHANNELS 3 Zrotation Yrotation Xrotation
				JOINT LeftFoot
				{
					OFFSET 2.500000 -6.900000 0.000000
					CHANNELS 3 Zrotation Yrotation Xrotation
					JOINT LeftToeBase
					{
						OFFSET 0.200000 -0.500000 1.950000
						CHANNELS 3 Zrotation Yrotation Xrotation
						End Site
						{
							OFFSET 0.000000 0.000000 0.000000
						}
					}
				}
			}
		}
	}
	JOINT RHipJoint
	{
		OFFSET 0.000000 0.000000 0.000000
		CHANNELS 3 Zrotation Yrotation Xrotation
		JOINT RightUpLeg
		{
			OFFSET -1.800000 -1.400000 0.085000
			CHANNELS 3 Zrotation Yrotation Xrotation
			JOINT RightLeg
			{
				OFFSET -2.215000 -6.000000 0.000000
				CHANNELS 3 Zrotation Yrotation Xrotation
				JOINT RightFoot
				{
					OFFSET -2.500000 -6.900000 0.000000
					CHANNELS 3 Zrotation Yrotation Xrotation
					JOINT RightToeBase
					{
						OFFSET -0.200000 -0.500000 1.950000
						CHANNELS 3 Zrotation Yrotation Xrotation
						End Site
						{
							OFFSET 0.000000 0.000000 0.000000
						}
					}
				}
			}
		}
	}
	JOINT LowerBack
	{
		OFFSET 0.000000 0.000000 0.000000
		CHANNELS 3 Zrotation Yrotation Xrotation
		JOINT Spine
		{
			OFFSET -0.087000 1.940000 -0.288900
			CHANNELS 3 Zrotation Yrotation Xrotation
			JOINT Spine1
			{
				OFFSET 0.000000 1.950000 0.060000
				CHANNELS 3 Zrotation Yrotation Xrotation
				JOINT Neck
				{
					OFFSET 0.000000 0.000000 0.000000
					CHANNELS 3 Zrotation Yrotation Xrotation
					JOINT Neck1
					{
						OFFSET 0.000000 1.600000 0.340000
						CHANNELS 3 Zrotation Yrotation Xrotation
						JOINT Head
						{
							OFFSET 0.000000 1.667000 -0.240000
							CHANNELS 3 Zrotation Yrotation Xrotation
							End Site
							{
								OFFSET 0.000000 0.000000 0.000000
							}
						}
					}
				}
				JOINT LeftShoulder
				{
					OFFSET 0.000000 0.000000 0.000000
					CHANNELS 3 Zrotation Yrotation Xrotation
					JOINT LeftArm
					{
						OFFSET 2.700000 1.550000 -0.730000
						CHANNELS 3 Zrotation Yrotation Xrotation
						JOINT LeftForeArm
						{
							OFFSET 5.450000 0.000000 0.000000
							CHANNELS 3 Zrotation Yrotation Xrotation
							JOINT LeftHand
							{
								OFFSET 3.450000 0.000000 0.000000
								CHANNELS 3 Zrotation Yrotation Xrotation
								JOINT LeftHandIndex1
								{
									OFFSET 0.750000 0.000000 0.000000
									CHANNELS 3 Zrotation Yrotation Xrotation
									End Site
									{
										OFFSET 0.000000 0.000000 0.000000
									}
								}
							}
						}
					}
				}
				JOINT RightShoulder
				{
					OFFSET 0.000000 0.000000 0.000000
					CHANNELS 3 Zrotation Yrotation Xrotation
					JOINT RightArm
					{
						OFFSET -2.700000 1.550000 -0.730000
						CHANNELS 3 Zrotation Yrotation Xrotation
						JOINT RightForeArm
						{
							OFFSET -5.450000 0.000000 0.000000
							CHANNELS 3 Zrotation Yrotation Xrotation
							JOINT RightHand
							{
								OFFSET -3.450000 0.000000 0.000000
								CHANNELS 3 Zrotation Yrotation Xrotation
								JOINT RightHandIndex1
								{
									OFFSET -0.750000 0.000000 0.000000
									CHANNELS 3 Zrotation Yrotation Xrotation
									End Site
									{
										OFFSET 0.000000 0.000000 0.000000
									}
								}
							}
						}
					}
				}
			}
		}
	}
}
MOTION
Frames: 9
Frame Time: 0.016667
-1.986240 18.689860 -1.237450 -10.839376 23.563502 -2.418519 -14.816190 11.617462 1.699123 1.110884 -1.456956 -13.486465 -2.688299 4.390803 15.324152 -1.157827 3.931227 3.383013 0.043690 -0.144090 -0.116520 19.138667 -8.860426 5.962211 0.019963 16.253442 -59.047785 1.935294 -10.982336 60.007824 -1.556199 -8.982364 1.150880 -0.002110 0.762710 0.580040 -5.632792 -0.155921 -8.464025 26.974534 -9.128007 18.481038 -9.474952 -3.330309 17.550860 4.130449 7.063168 -9.919534 11.913153 -7.168976 60.692830 -8.590840 0.611150 -11.835110 -18.467296 -12.700696 4.428111 13.989963 16.786590 0.910048 21.761050 -39.383266 -5.808617 -4.154694 2.756333 0.942220 0.356240 0.250810 0.309010 11.770471 3.315090 5.015046 -5.712139 -17.556699 -2.294887 -14.180897 34.147213 -1.895075 1.780512 -1.165128 -0.457970 0.678910 0.425800 -0.025130 
-1.909730 18.644830 -1.237550 -9.364003 22.014358 -1.258741 -14.821464 11.865896 1.822202 -0.209687 -1.544917 -13.880524 -1.204130 4.240525 17.819803 -1.182836 3.969968 3.366942 0.157350 -0.028980 -0.003800 19.077777 -8.965708 5.808038 2.396074 15.387482 -56.937841 -0.167894 -6.804025 47.607739 -1.012933 -6.175130 2.017817 0.077040 0.696430 0.519440 -5.530244 -0.421521 -8.311922 24.496384 -8.442226 18.165405 -8.069124 -3.681388 17.858107 3.564750 6.612800 -9.935517 11.191273 -6.304005 64.560376 -7.461710 1.489960 -12.820790 -20.334213 -13.741751 4.880236 18.101302 18.628132 2.610047 13.264624 -29.754743 -2.504083 -3.998031 2.854964 1.015070 0.287740 0.307550 0.354510 14.808531 4.810037 4.331864 -12.118996 -14.964687 -0.853137 -10.646764 26.060534 -0.602170 1.856485 -1.173330 -0.492860 0.717070 0.312600 -0.049930 
-1.812280 18.532690 -1.247790 -8.389928 20.155009 -1.087686 -14.814262 12.126318 1.936013 -1.271218 -1.400758 -13.232343 0.544400 3.969806 19.611629 -1.222100 4.088493 3.322193 0.142530 -0.078550 0.017610 19.008954 -9.162930 5.598418 4.333675 14.230958 -54.238091 -0.149618 -4.698042 34.946120 -0.539578 -3.762322 2.807229 0.080560 0.681550 0.441150 -5.447472 -0.534052 -8.199778 23.534550 -8.107574 19.058757 -7.922728 -3.619036 17.517160 3.397484 5.515529 -9.675285 8.493789 -4.933712 65.841479 -6.205890 1.043270 -12.366610 -20.759392 -13.866132 4.815050 20.202682 18.668550 3.308026 10.027761 -21.690561 -1.506979 -3.902320 2.806354 1.056900 0.245780 0.260900 0.314220 15.480789 5.910658 3.980198 -15.950147 -12.960253 -0.188468 -6.334018 19.382876 0.175289 1.882207 -1.137090 -0.563000 0.738330 0.326710 -0.089970 
-1.723940 18.385300 -1.238960 -7.152414 19.154495 -0.741246 -14.800180 12.325128 2.063444 -2.429472 -1.259542 -12.496393 1.696809 3.758103 21.098939 -1.205681 4.219653 3.272165 0.203240 -0.011180 0.054130 18.952535 -9.459255 5.185822 5.669757 12.227383 -50.676651 1.265333 -3.359967 20.220297 -0.212937 -1.687155 3.533547 0.133990 0.672060 0.419260 -5.414499 -0.512540 -8.027785 22.542148 -7.635270 18.836302 -8.006302 -3.752775 18.137996 3.239536 4.639515 -8.958819 6.310414 -3.640042 66.075484 -4.815320 0.625320 -13.410730 -20.920178 -13.599956 4.185853 23.228976 18.348434 4.051144 6.986955 -16.152255 -1.083829 -3.798417 2.828754 1.058100 0.221710 0.262160 0.330820 16.023205 6.153925 3.561648 -17.996872 -12.575002 0.132701 -5.272350 17.263252 0.204572 1.882228 -1.179277 -0.566300 0.759350 0.293650 -0.086970 
-1.625880 18.235710 -1.240160 -6.768637 18.775085 -1.839805 -14.786016 12.474219 2.089857 -1.927445 -1.110339 -10.912396 1.131865 4.151633 22.747039 -1.083816 4.543660 3.145453 0.259220 0.088210 0.031940 18.906729 -9.731449 4.795396 5.808189 10.438905 -45.972582 4.834093 -2.522394 6.508866 -0.125805 -0.885663 3.815851 0.174610 0.676950 0.458510 -5.403078 -0.426534 -7.951966 22.881193 -8.369664 20.665854 -8.926761 -4.354358 19.183039 3.198949 3.248372 -8.066418 2.953444 -1.710639 62.551477 -3.406030 -0.022060 -15.837890 -20.415629 -12.518915 3.272687 24.554114 16.341615 4.028986 7.248418 -12.620144 -1.112098 -3.779525 2.838755 1.012250 0.208790 0.284770 0.365210 15.685225 5.671953 3.491857 -17.455307 -12.206976 -0.077419 -7.769578 18.868440 -0.141966 1.911607 -1.234700 -0.498630 0.743740 0.274670 -0.031310 
-1.554230 18.083640 -1.267080 -4.804160 17.462444 -2.238389 -14.885888 12.558846 2.235275 -2.704018 -1.074208 -9.775983 -0.928729 5.038386 24.069164 -0.941092 4.940422 3.001642 0.265630 0.122400 0.005440 18.785035 -9.592686 4.675242 4.793333 9.303388 -42.601567 7.979082 -1.364576 -5.280596 -0.173052 -1.067476 3.780628 0.186510 0.686430 0.474150 -5.047530 -0.903090 -8.139137 19.511673 -8.167080 24.278415 -8.658289 -4.406608 19.297443 3.063742 2.139387 -7.461837 0.547605 0.077083 58.756236 -3.441280 0.456550 -16.702440 -19.610436 -11.130675 2.485192 24.967762 14.568297 3.780036 8.135866 -10.467936 -1.147635 -3.816460 2.817753 0.960150 0.223070 0.275570 0.376690 15.068807 5.434386 3.292014 -16.563057 -9.803790 -0.678823 -9.352096 20.568276 -0.436534 1.928106 -1.260956 -0.464610 0.721470 0.269110 -0.002900 
-1.487050 17.921750 -1.281370 -2.393137 15.958603 -1.882168 -15.099320 12.660574 2.420079 -4.386132 -1.036434 -9.188005 -2.545160 5.808918 25.015976 -0.842506 5.371211 2.885319 0.087900 -0.074140 -0.136350 18.575240 -9.126301 4.813861 3.260478 8.939996 -41.148009 10.926810 -0.096426 -14.185186 -0.233832 -1.582866 3.666235 0.085270 0.812290 0.468130 -4.374346 -1.858602 -8.466704 14.345171 -6.409369 27.673419 -6.163003 -3.288799 17.943286 2.842016 2.224820 -7.825900 0.563176 0.481177 56.664795 -3.339340 0.750760 -15.144570 -18.282962 -10.558537 2.343091 23.234444 13.407098 3.167129 9.192778 -13.894820 -1.231500 -3.984704 2.728790 0.941900 0.296890 0.194340 0.342480 13.890492 6.060925 3.533326 -16.361229 -7.825555 -1.020536 -8.336477 19.188010 -0.149176 1.897621 -1.120167 -0.529150 0.772420 0.400080 0.004950 
-1.404330 17.783210 -1.280770 -0.307888 13.038531 -0.740649 -15.257411 12.650939 2.640517 -6.445944 -1.091090 -9.563630 -4.578564 6.600297 25.573564 -0.742007 5.633458 2.736378 0.038360 -0.167070 -0.169160 18.442812 -8.804435 4.912261 3.437465 9.548613 -42.737009 11.454655 0.073522 -14.850076 -0.238715 -1.536165 3.627406 -0.002020 0.783000 0.552900 -3.881588 -2.410446 -8.642295 10.295405 -4.481733 28.499291 -4.817242 -1.927273 17.453035 2.733116 1.769214 -8.887695 -0.606095 1.299425 56.847724 -3.300550 1.031860 -15.140080 -15.757118 -9.359207 2.800209 18.019970 13.842398 2.084988 12.562656 -20.913029 -1.921239 -4.045694 2.770556 0.959150 0.282580 0.206910 0.281970 11.259059 6.457735 4.190353 -13.744783 -5.874202 -1.306147 -5.445172 20.006742 0.383899 1.882060 -1.052262 -0.469470 0.671090 0.481960 -0.006900 
-1.292260 17.695500 -1.268180 0.996888 11.689303 0.031647 -15.366698 12.706013 2.872352 -8.830404 -1.354516 -10.336512 -4.569480 6.711473 26.922017 -0.759450 5.868159 2.633379 -0.060450 -0.320560 -0.231420 18.346662 -8.680613 4.867324 4.684944 9.642147 -44.584758 10.108701 -0.688867 -11.338874 -0.131712 -1.245013 3.702397 -0.071270 0.827590 0.594540 -3.554866 -2.841303 -8.690275 8.199418 -3.640453 28.778892 -3.595183 -1.441371 16.727948 2.616989 1.576439 -9.179328 -1.361528 1.622835 56.028817 -3.806170 0.964690 -14.892390 -14.837122 -9.018289 2.782033 14.275942 11.808750 1.013471 13.092984 -25.610501 -2.491678 -4.121758 2.735338 0.993230 0.314430 0.164550 0.223820 10.433771 6.665327 4.563127 -10.539829 -8.410324 -2.399230 -7.055581 29.038693 0.089566 1.790225 -1.070673 -0.506490 0.656160 0.598370 -0.036980 
